<svg width="14" height="14" viewBox="0 0 14 14" fill="none" xmlns="http://www.w3.org/2000/svg">
<path fill-rule="evenodd" clip-rule="evenodd" d="M1.97489 0C0.882679 0 0 0.882682 0 1.97489C0 3.0671 0.882679 3.94978 1.97489 3.94978C3.06709 3.94978 3.94978 3.06264 3.94978 1.97489C3.94978 0.88714 3.06264 0 1.97489 0Z" fill="#00A0E9"/>
<path fill-rule="evenodd" clip-rule="evenodd" d="M6.50418 0C5.41198 0 4.5293 0.882682 4.5293 1.97489C4.5293 3.0671 5.41198 3.94978 6.50418 3.94978C7.59639 3.94978 8.47908 3.06264 8.47908 1.97489C8.47908 0.88714 7.59193 0 6.50418 0Z" fill="#00A0E9"/>
<path fill-rule="evenodd" clip-rule="evenodd" d="M9.06311 11.0424C9.06311 12.1347 9.95025 13.0173 11.038 13.0173C12.1257 13.0173 13.0129 12.1302 13.0129 11.0424C13.0129 9.9547 12.1257 9.06756 11.038 9.06756C9.95025 9.06756 9.06311 9.9547 9.06311 11.0424Z" fill="#00A0E9"/>
<path fill-rule="evenodd" clip-rule="evenodd" d="M9.06311 1.97489C9.06311 3.0671 9.95025 3.94978 11.038 3.94978C12.1257 3.94978 13.0129 3.0671 13.0129 1.97489C13.0129 0.882682 12.1302 0 11.038 0C9.94579 0 9.06311 0.88714 9.06311 1.97489Z" fill="#00A0E9"/>
<path fill-rule="evenodd" clip-rule="evenodd" d="M9.06311 6.50867C9.06311 7.60088 9.95025 8.48356 11.038 8.48356C12.1257 8.48356 13.0129 7.60088 13.0129 6.50867C13.0129 5.41646 12.1257 4.53378 11.038 4.53378C9.95025 4.53378 9.06311 5.42092 9.06311 6.50867V6.50867Z" fill="#00A0E9"/>
<path fill-rule="evenodd" clip-rule="evenodd" d="M4.5293 6.50867C4.5293 7.60088 5.41198 8.48356 6.50418 8.48356C7.59639 8.48356 8.47908 7.60088 8.47908 6.50867C8.47908 5.41646 7.59193 4.53378 6.50418 4.53378C5.41643 4.53378 4.5293 5.42092 4.5293 6.50867V6.50867Z" fill="#00A0E9"/>
</svg>
