<svg width="98" height="29" viewBox="0 0 98 29" fill="none" xmlns="http://www.w3.org/2000/svg">
<g clip-path="url(#clip0_1_10)">
<path fill-rule="evenodd" clip-rule="evenodd" d="M87.8447 17.832C87.9918 15.4336 90.8449 14.0694 93.0026 14.0694C93.9031 14.0694 94.8527 14.3012 95.6997 14.7158C96.5289 15.126 97.5587 16.0354 98 16.8646L95.4679 18.6032C95.0087 18.0281 94.3088 17.5645 93.591 17.4129C93.0561 17.3015 92.3696 17.3104 91.8569 17.5021C91.2996 17.7116 91.1079 18.1663 91.5894 18.5809C91.8123 18.7726 92.2715 18.9286 92.5434 19.0312C93.7872 19.4903 95.1424 19.8247 96.2346 20.6093C97.3982 21.4429 97.9911 22.2989 97.9554 23.7923C97.8885 26.6454 95.245 28.063 92.6504 28.063C90.417 28.063 88.6382 26.9798 87.5549 25.0227L90.0871 23.2841C90.5953 24.2158 91.5805 24.8355 92.646 24.8444C93.0472 24.8444 93.5955 24.7641 93.9878 24.5234C94.3489 24.305 94.5094 24.033 94.5138 23.7789C94.5183 23.4446 94.2597 23.1325 93.8318 22.8829C93.4618 22.6689 92.9981 22.5218 92.6504 22.3969C92.0085 22.1696 91.3219 21.9422 90.6844 21.6525C89.0394 20.8991 87.7243 19.8425 87.8447 17.832ZM17.8275 9.01405H21.064V28.0675H17.8275V9.01405ZM81.7194 14.0739C84.1178 14.0739 86.2309 15.2775 87.4925 17.1142L84.8222 18.9465C84.1446 17.9612 83.0078 17.3148 81.7194 17.3148C79.642 17.3148 77.9613 19 77.9613 21.0729C77.9613 23.1459 79.6465 24.831 81.7194 24.831C83.0078 24.831 84.1446 24.1846 84.8222 23.1994L87.4925 25.0316C86.2309 26.8683 84.1178 28.072 81.7194 28.072C77.8543 28.072 74.7204 24.938 74.7204 21.0729C74.7204 17.2078 77.8543 14.0739 81.7194 14.0739ZM70.6547 14.0739H73.8912V28.0675H70.6547V14.0694V14.0739ZM61.5916 11.0424H64.8326V14.0739H69.6293V17.3104H64.8326V22.6109C64.8326 23.8369 65.8267 24.8265 67.0526 24.8265H69.6293V28.063H67.0526C64.039 28.063 61.5961 25.6201 61.5961 22.6065V11.0424H61.5916ZM43.1623 28.0675C39.2972 28.0675 36.1632 24.9335 36.1632 21.0685V21.0417V9.01405H39.3997V15.1661C40.4875 14.4751 41.7758 14.0694 43.1578 14.0694C47.0229 14.0694 50.1568 17.2034 50.1568 21.0685C50.1568 23.1459 51.842 24.8265 53.9149 24.8265C55.9879 24.8265 57.673 23.1414 57.673 21.0685C57.673 18.9955 55.9879 17.3104 53.9149 17.3104C52.6087 17.3104 51.4586 17.9746 50.7854 18.9866C50.4734 17.8453 49.9117 16.8066 49.1672 15.9329C50.4154 14.7782 52.0827 14.0739 53.9194 14.0739C57.7845 14.0739 60.9184 17.2078 60.9184 21.0729C60.9184 24.938 57.7845 28.072 53.9194 28.072C50.0543 28.072 46.9203 24.938 46.9203 21.0729C46.9203 18.9955 45.2352 17.3148 43.1623 17.3148C41.0893 17.3148 39.4042 19 39.4042 21.0729C39.4042 23.1459 41.0893 24.831 43.1623 24.831C44.4685 24.831 45.6186 24.1668 46.2918 23.1548C46.6038 24.296 47.1611 25.3348 47.91 26.213C46.6618 27.3676 44.9945 28.072 43.1578 28.072L43.1623 28.0675ZM28.6158 14.0739C32.4809 14.0739 35.6149 17.2078 35.6149 21.0729C35.6149 24.938 32.4809 28.072 28.6158 28.072C24.7508 28.072 21.6168 24.938 21.6168 21.0729C21.6168 17.2078 24.7508 14.0739 28.6158 14.0739ZM28.6158 17.3104C26.5384 17.3104 24.8578 18.9955 24.8578 21.0685C24.8578 23.1414 26.5429 24.8265 28.6158 24.8265C30.6888 24.8265 32.3739 23.1414 32.3739 21.0685C32.3739 18.9955 30.6888 17.3104 28.6158 17.3104ZM9.52673 9.01405C12.79 9.01405 15.6698 10.6546 17.3862 13.1555L14.6712 15.0145C13.5478 13.3784 11.6621 12.3041 9.52673 12.3041C6.0807 12.3041 3.29 15.0948 3.29 18.5408C3.29 21.9868 6.0807 24.7775 9.52673 24.7775C11.6621 24.7775 13.5478 23.7031 14.6712 22.067L17.3862 23.926C15.6698 26.427 12.79 28.0675 9.52673 28.0675C4.2663 28.0675 0 23.8012 0 18.5408C0 13.2804 4.2663 9.01405 9.52673 9.01405Z" fill="white"/>
<path fill-rule="evenodd" clip-rule="evenodd" d="M63.2098 0C62.1176 0 61.235 0.882682 61.235 1.97489C61.235 3.0671 62.1176 3.94978 63.2098 3.94978C64.302 3.94978 65.1847 3.06264 65.1847 1.97489C65.1847 0.88714 64.2976 0 63.2098 0Z" fill="white"/>
<path fill-rule="evenodd" clip-rule="evenodd" d="M67.7392 0C66.647 0 65.7643 0.882682 65.7643 1.97489C65.7643 3.0671 66.647 3.94978 67.7392 3.94978C68.8314 3.94978 69.7141 3.06264 69.7141 1.97489C69.7141 0.88714 68.8269 0 67.7392 0Z" fill="white"/>
<path fill-rule="evenodd" clip-rule="evenodd" d="M70.2981 11.0425C70.2981 12.1347 71.1852 13.0173 72.273 13.0173C73.3607 13.0173 74.2478 12.1302 74.2478 11.0425C74.2478 9.95471 73.3607 9.06757 72.273 9.06757C71.1852 9.06757 70.2981 9.95471 70.2981 11.0425Z" fill="white"/>
<path fill-rule="evenodd" clip-rule="evenodd" d="M70.2981 1.97489C70.2981 3.0671 71.1852 3.94978 72.273 3.94978C73.3607 3.94978 74.2478 3.0671 74.2478 1.97489C74.2478 0.882682 73.3652 0 72.273 0C71.1807 0 70.2981 0.88714 70.2981 1.97489Z" fill="white"/>
<path fill-rule="evenodd" clip-rule="evenodd" d="M70.2981 6.50867C70.2981 7.60088 71.1852 8.48356 72.273 8.48356C73.3607 8.48356 74.2478 7.60088 74.2478 6.50867C74.2478 5.41647 73.3607 4.53378 72.273 4.53378C71.1852 4.53378 70.2981 5.42092 70.2981 6.50867Z" fill="white"/>
<path fill-rule="evenodd" clip-rule="evenodd" d="M65.7643 6.50867C65.7643 7.60088 66.647 8.48356 67.7392 8.48356C68.8314 8.48356 69.7141 7.60088 69.7141 6.50867C69.7141 5.41647 68.8269 4.53378 67.7392 4.53378C66.6514 4.53378 65.7643 5.42092 65.7643 6.50867Z" fill="white"/>
</g>
<defs>
<clipPath id="clip0_1_10">
<rect width="98" height="28.0675" fill="white"/>
</clipPath>
</defs>
</svg>
