<svg width="23" height="23" viewBox="0 0 23 23" fill="none" xmlns="http://www.w3.org/2000/svg">
<path d="M17.1997 6.53338H11.5997C11.0863 6.53338 10.6663 6.95338 10.6663 7.46672V11.2C10.6663 11.7134 11.0863 12.1334 11.5997 12.1334H17.1997C17.713 12.1334 18.133 11.7134 18.133 11.2V7.46672C18.133 6.95338 17.713 6.53338 17.1997 6.53338ZM19.9997 2.80005H3.19967C2.17301 2.80005 1.33301 3.64005 1.33301 4.66672V17.7334C1.33301 18.76 2.17301 19.5814 3.19967 19.5814H19.9997C21.0263 19.5814 21.8663 18.76 21.8663 17.7334V4.66672C21.8663 3.64005 21.0263 2.80005 19.9997 2.80005ZM19.0663 17.7427H4.13301C3.61967 17.7427 3.19967 17.3227 3.19967 16.8094V5.58138C3.19967 5.06805 3.61967 4.64805 4.13301 4.64805H19.0663C19.5797 4.64805 19.9997 5.06805 19.9997 5.58138V16.8094C19.9997 17.3227 19.5797 17.7427 19.0663 17.7427Z" fill="white"/>
</svg>
