<svg width="24" height="23" viewBox="0 0 24 23" fill="none" xmlns="http://www.w3.org/2000/svg">
<path d="M4.53317 5.6001H2.6665V18.6668C2.6665 19.6934 3.5065 20.5334 4.53317 20.5334H17.5998V18.6668H4.53317V5.6001Z" fill="white"/>
<path d="M19.4668 1.86694H8.26681C7.24015 1.86694 6.40015 2.70694 6.40015 3.73361V14.9336C6.40015 15.9603 7.24015 16.8003 8.26681 16.8003H19.4668C20.4935 16.8003 21.3335 15.9603 21.3335 14.9336V3.73361C21.3335 2.70694 20.4935 1.86694 19.4668 1.86694ZM19.4668 14.9336H8.26681V3.73361H19.4668V14.9336ZM15.7335 11.2003V8.40028C15.7335 7.88694 15.3135 7.46694 14.8001 7.46694H12.9335V12.1336H14.8001C15.3135 12.1336 15.7335 11.7136 15.7335 11.2003ZM13.8668 8.40028H14.8001V11.2003H13.8668V8.40028ZM17.6001 10.2669H18.5335V9.33361H17.6001V8.40028H18.5335V7.46694H16.6668V12.1336H17.6001V10.2669ZM10.1335 10.2669H11.0668C11.5801 10.2669 12.0001 9.84694 12.0001 9.33361V8.40028C12.0001 7.88694 11.5801 7.46694 11.0668 7.46694H9.20015V12.1336H10.1335V10.2669ZM10.1335 8.40028H11.0668V9.33361H10.1335V8.40028Z" fill="white"/>
</svg>
